{
    "asset" : {
        "generator" : "Khronos glTF Blender I/O v1.2.75",
        "version" : "2.0"
    },
    "scene" : 0,
    "scenes" : [
        {
            "extras" : {
                "glTF2ExportSettings" : {
                    "export_apply" : 1,
                    "export_extras" : 1,
                    "export_format" : "GLTF_EMBEDDED",
                    "export_lights" : 1,
                    "export_tangents" : 1
                }
            },
            "name" : "Scene",
            "nodes" : [
                0,
                1,
                2
            ]
        }
    ],
    "nodes" : [
        {
            "mesh" : 0,
            "name" : "Cylinder",
            "translation" : [
                0,
                -1.1171538829803467,
                0
            ]
        },
        {
            "mesh" : 1,
            "name" : "Cube",
            "translation" : [
                0,
                -31.291353225708008,
                0
            ]
        },
        {
            "mesh" : 2,
            "name" : "Plane",
            "translation" : [
                0,
                -0.23910284042358398,
                0
            ]
        }
    ],
    "materials" : [
        {
            "doubleSided" : true,
            "emissiveFactor" : [
                0,
                0,
                0
            ],
            "name" : "Material.003",
            "pbrMetallicRoughness" : {
                "baseColorFactor" : [
                    0.8000000715255737,
                    0.4879496693611145,
                    0.11293655633926392,
                    1
                ],
                "metallicFactor" : 0,
                "roughnessFactor" : 1
            }
        },
        {
            "doubleSided" : true,
            "emissiveFactor" : [
                0,
                0,
                0
            ],
            "name" : "Material.001",
            "pbrMetallicRoughness" : {
                "baseColorFactor" : [
                    0.8000000715255737,
                    0.4108039140701294,
                    0.09154543280601501,
                    1
                ],
                "metallicFactor" : 0,
                "roughnessFactor" : 0.5
            }
        },
        {
            "doubleSided" : true,
            "emissiveFactor" : [
                0.009018679149448872,
                0.009018679149448872,
                0.009018679149448872
            ],
            "name" : "Material.002",
            "pbrMetallicRoughness" : {
                "baseColorFactor" : [
                    0.007864313200116158,
                    0.1579618602991104,
                    0.8000000715255737,
                    1
                ],
                "metallicFactor" : 0,
                "roughnessFactor" : 0.145454540848732
            }
        }
    ],
    "meshes" : [
        {
            "name" : "Cylinder",
            "primitives" : [
                {
                    "attributes" : {
                        "POSITION" : 0,
                        "NORMAL" : 1,
                        "TEXCOORD_0" : 2
                    },
                    "indices" : 3,
                    "material" : 0
                }
            ]
        },
        {
            "name" : "Cube.001",
            "primitives" : [
                {
                    "attributes" : {
                        "POSITION" : 4,
                        "NORMAL" : 5,
                        "TANGENT" : 6,
                        "TEXCOORD_0" : 7
                    },
                    "indices" : 8,
                    "material" : 1
                }
            ]
        },
        {
            "name" : "Plane",
            "primitives" : [
                {
                    "attributes" : {
                        "POSITION" : 9,
                        "NORMAL" : 10,
                        "TANGENT" : 11,
                        "TEXCOORD_0" : 12
                    },
                    "indices" : 13,
                    "material" : 2
                }
            ]
        }
    ],
    "accessors" : [
        {
            "bufferView" : 0,
            "componentType" : 5126,
            "count" : 150,
            "max" : [
                29.894418716430664,
                3.1297414302825928,
                29.813587188720703
            ],
            "min" : [
                -29.894418716430664,
                -3.1297414302825928,
                -29.92137908935547
            ],
            "type" : "VEC3"
        },
        {
            "bufferView" : 1,
            "componentType" : 5126,
            "count" : 150,
            "type" : "VEC3"
        },
        {
            "bufferView" : 2,
            "componentType" : 5126,
            "count" : 150,
            "type" : "VEC2"
        },
        {
            "bufferView" : 3,
            "componentType" : 5123,
            "count" : 432,
            "type" : "SCALAR"
        },
        {
            "bufferView" : 4,
            "componentType" : 5126,
            "count" : 1786,
            "max" : [
                169.31246948242188,
                3.922232151031494,
                169.31246948242188
            ],
            "min" : [
                -169.31246948242188,
                -1.801196575164795,
                -169.31246948242188
            ],
            "type" : "VEC3"
        },
        {
            "bufferView" : 5,
            "componentType" : 5126,
            "count" : 1786,
            "type" : "VEC3"
        },
        {
            "bufferView" : 6,
            "componentType" : 5126,
            "count" : 1786,
            "type" : "VEC4"
        },
        {
            "bufferView" : 7,
            "componentType" : 5126,
            "count" : 1786,
            "type" : "VEC2"
        },
        {
            "bufferView" : 8,
            "componentType" : 5123,
            "count" : 8004,
            "type" : "SCALAR"
        },
        {
            "bufferView" : 9,
            "componentType" : 5126,
            "count" : 3072,
            "max" : [
                164.1817169189453,
                0.9899359345436096,
                164.1817169189453
            ],
            "min" : [
                -164.1817169189453,
                -29.616479873657227,
                -164.1817169189453
            ],
            "type" : "VEC3"
        },
        {
            "bufferView" : 10,
            "componentType" : 5126,
            "count" : 3072,
            "type" : "VEC3"
        },
        {
            "bufferView" : 11,
            "componentType" : 5126,
            "count" : 3072,
            "type" : "VEC4"
        },
        {
            "bufferView" : 12,
            "componentType" : 5126,
            "count" : 3072,
            "type" : "VEC2"
        },
        {
            "bufferView" : 13,
            "componentType" : 5123,
            "count" : 16008,
            "type" : "SCALAR"
        }
    ],
    "bufferViews" : [
        {
            "buffer" : 0,
            "byteLength" : 1800,
            "byteOffset" : 0
        },
        {
            "buffer" : 0,
            "byteLength" : 1800,
            "byteOffset" : 1800
        },
        {
            "buffer" : 0,
            "byteLength" : 1200,
            "byteOffset" : 3600
        },
        {
            "buffer" : 0,
            "byteLength" : 864,
            "byteOffset" : 4800
        },
        {
            "buffer" : 0,
            "byteLength" : 21432,
            "byteOffset" : 5664
        },
        {
            "buffer" : 0,
            "byteLength" : 21432,
            "byteOffset" : 27096
        },
        {
            "buffer" : 0,
            "byteLength" : 28576,
            "byteOffset" : 48528
        },
        {
            "buffer" : 0,
            "byteLength" : 14288,
            "byteOffset" : 77104
        },
        {
            "buffer" : 0,
            "byteLength" : 16008,
            "byteOffset" : 91392
        },
        {
            "buffer" : 0,
            "byteLength" : 36864,
            "byteOffset" : 107400
        },
        {
            "buffer" : 0,
            "byteLength" : 36864,
            "byteOffset" : 144264
        },
        {
            "buffer" : 0,
            "byteLength" : 49152,
            "byteOffset" : 181128
        },
        {
            "buffer" : 0,
            "byteLength" : 24576,
            "byteOffset" : 230280
        },
        {
            "buffer" : 0,
            "byteLength" : 32016,
            "byteOffset" : 254856
        }
    ],
    "buffers" : [
        {
            "byteLength" : 286872,
            "uri" : "data:application/octet-stream;base64,"
        }
    ]
}
