{
    "asset" : {
        "generator" : "Khronos glTF Blender I/O v1.2.75",
        "version" : "2.0"
    },
    "scene" : 0,
    "scenes" : [
        {
            "extras" : {
                "glTF2ExportSettings" : {
                    "export_apply" : 1,
                    "export_extras" : 1,
                    "export_format" : "GLTF_EMBEDDED",
                    "export_lights" : 0,
                    "export_tangents" : 0
                }
            },
            "name" : "Scene",
            "nodes" : [
                0,
                1,
                2,
                3,
                4
            ]
        }
    ],
    "nodes" : [
        {
            "name" : "Camera",
            "rotation" : [
                0.483536034822464,
                0.33687159419059753,
                -0.20870360732078552,
                0.7804827094078064
            ],
            "translation" : [
                7.358891487121582,
                4.958309173583984,
                6.925790786743164
            ]
        },
        {
            "mesh" : 0,
            "name" : "Cube",
            "translation" : [
                0,
                -43.66565704345703,
                0
            ]
        },
        {
            "mesh" : 1,
            "name" : "Plane",
            "translation" : [
                0,
                -1.6915225982666016,
                0
            ]
        },
        {
            "mesh" : 2,
            "name" : "Cylinder.001",
            "scale" : [
                19.460399627685547,
                1,
                19.460399627685547
            ],
            "translation" : [
                0,
                -1.3404344320297241,
                0
            ]
        },
        {
            "extras" : {},
            "mesh" : 3,
            "name" : "Whale",
            "rotation" : [
                0.01410638727247715,
                -0.22804167866706848,
                -0.0025499549228698015,
                0.9735458493232727
            ],
            "scale" : [
                15.835259437561035,
                15.835259437561035,
                15.835260391235352
            ],
            "translation" : [
                -90.14222717285156,
                -40.340240478515625,
                106.00479125976562
            ]
        }
    ],
    "materials" : [
        {
            "doubleSided" : true,
            "emissiveFactor" : [
                0,
                0,
                0
            ],
            "name" : "Material.001",
            "pbrMetallicRoughness" : {
                "baseColorFactor" : [
                    0.8000000715255737,
                    0.28175950050354004,
                    0.02169479802250862,
                    1
                ],
                "metallicFactor" : 0,
                "roughnessFactor" : 0.5
            }
        },
        {
            "doubleSided" : true,
            "emissiveFactor" : [
                0.005243558902293444,
                0.005243558902293444,
                0.005243558902293444
            ],
            "name" : "Material.002",
            "pbrMetallicRoughness" : {
                "baseColorFactor" : [
                    0.18567121028900146,
                    0.5960766077041626,
                    0.8000000715255737,
                    1
                ],
                "metallicFactor" : 0.5185185670852661,
                "roughnessFactor" : 0.06410256773233414
            }
        },
        {
            "doubleSided" : true,
            "emissiveFactor" : [
                0,
                0,
                0
            ],
            "name" : "Material.003",
            "pbrMetallicRoughness" : {
                "baseColorFactor" : [
                    0.8000000715255737,
                    0.7265337705612183,
                    0.2385299652814865,
                    1
                ],
                "metallicFactor" : 0,
                "roughnessFactor" : 1
            }
        },
        {
            "doubleSided" : true,
            "name" : "Material",
            "pbrMetallicRoughness" : {}
        }
    ],
    "meshes" : [
        {
            "name" : "Cube.001",
            "primitives" : [
                {
                    "attributes" : {
                        "POSITION" : 0,
                        "NORMAL" : 1,
                        "TEXCOORD_0" : 2
                    },
                    "indices" : 3,
                    "material" : 0
                }
            ]
        },
        {
            "name" : "Plane.001",
            "primitives" : [
                {
                    "attributes" : {
                        "POSITION" : 4,
                        "NORMAL" : 5,
                        "TEXCOORD_0" : 6
                    },
                    "indices" : 7,
                    "material" : 1
                }
            ]
        },
        {
            "name" : "Cylinder.003",
            "primitives" : [
                {
                    "attributes" : {
                        "POSITION" : 8,
                        "NORMAL" : 9,
                        "TEXCOORD_0" : 10
                    },
                    "indices" : 11,
                    "material" : 2
                }
            ]
        },
        {
            "extras" : {
                "node_modifier" : {}
            },
            "name" : "Cube.002",
            "primitives" : [
                {
                    "attributes" : {
                        "POSITION" : 12,
                        "NORMAL" : 13,
                        "TEXCOORD_0" : 14
                    },
                    "indices" : 15,
                    "material" : 3
                }
            ]
        }
    ],
    "accessors" : [
        {
            "bufferView" : 0,
            "componentType" : 5126,
            "count" : 1790,
            "max" : [
                132.19769287109375,
                3.0624446868896484,
                132.19769287109375
            ],
            "min" : [
                -132.19769287109375,
                -1.4063585996627808,
                -132.19769287109375
            ],
            "type" : "VEC3"
        },
        {
            "bufferView" : 1,
            "componentType" : 5126,
            "count" : 1790,
            "type" : "VEC3"
        },
        {
            "bufferView" : 2,
            "componentType" : 5126,
            "count" : 1790,
            "type" : "VEC2"
        },
        {
            "bufferView" : 3,
            "componentType" : 5123,
            "count" : 8004,
            "type" : "SCALAR"
        },
        {
            "bufferView" : 4,
            "componentType" : 5126,
            "count" : 5354,
            "max" : [
                129.04661560058594,
                1.8934532403945923,
                129.04661560058594
            ],
            "min" : [
                -129.04661560058594,
                -41.36790466308594,
                -129.04661560058594
            ],
            "type" : "VEC3"
        },
        {
            "bufferView" : 5,
            "componentType" : 5126,
            "count" : 5354,
            "type" : "VEC3"
        },
        {
            "bufferView" : 6,
            "componentType" : 5126,
            "count" : 5354,
            "type" : "VEC2"
        },
        {
            "bufferView" : 7,
            "componentType" : 5123,
            "count" : 14112,
            "type" : "SCALAR"
        },
        {
            "bufferView" : 8,
            "componentType" : 5126,
            "count" : 130,
            "max" : [
                1,
                1,
                1
            ],
            "min" : [
                -1,
                -1,
                -1
            ],
            "type" : "VEC3"
        },
        {
            "bufferView" : 9,
            "componentType" : 5126,
            "count" : 130,
            "type" : "VEC3"
        },
        {
            "bufferView" : 10,
            "componentType" : 5126,
            "count" : 130,
            "type" : "VEC2"
        },
        {
            "bufferView" : 11,
            "componentType" : 5123,
            "count" : 372,
            "type" : "SCALAR"
        },
        {
            "bufferView" : 12,
            "componentType" : 5126,
            "count" : 22338,
            "max" : [
                1.8424012660980225,
                1.660378098487854,
                0.6933386325836182
            ],
            "min" : [
                -1.4952877759933472,
                -0.0017732243286445737,
                -0.7305432558059692
            ],
            "type" : "VEC3"
        },
        {
            "bufferView" : 13,
            "componentType" : 5126,
            "count" : 22338,
            "type" : "VEC3"
        },
        {
            "bufferView" : 14,
            "componentType" : 5126,
            "count" : 22338,
            "type" : "VEC2"
        },
        {
            "bufferView" : 15,
            "componentType" : 5123,
            "count" : 72384,
            "type" : "SCALAR"
        }
    ],
    "bufferViews" : [
        {
            "buffer" : 0,
            "byteLength" : 21480,
            "byteOffset" : 0
        },
        {
            "buffer" : 0,
            "byteLength" : 21480,
            "byteOffset" : 21480
        },
        {
            "buffer" : 0,
            "byteLength" : 14320,
            "byteOffset" : 42960
        },
        {
            "buffer" : 0,
            "byteLength" : 16008,
            "byteOffset" : 57280
        },
        {
            "buffer" : 0,
            "byteLength" : 64248,
            "byteOffset" : 73288
        },
        {
            "buffer" : 0,
            "byteLength" : 64248,
            "byteOffset" : 137536
        },
        {
            "buffer" : 0,
            "byteLength" : 42832,
            "byteOffset" : 201784
        },
        {
            "buffer" : 0,
            "byteLength" : 28224,
            "byteOffset" : 244616
        },
        {
            "buffer" : 0,
            "byteLength" : 1560,
            "byteOffset" : 272840
        },
        {
            "buffer" : 0,
            "byteLength" : 1560,
            "byteOffset" : 274400
        },
        {
            "buffer" : 0,
            "byteLength" : 1040,
            "byteOffset" : 275960
        },
        {
            "buffer" : 0,
            "byteLength" : 744,
            "byteOffset" : 277000
        },
        {
            "buffer" : 0,
            "byteLength" : 268056,
            "byteOffset" : 277744
        },
        {
            "buffer" : 0,
            "byteLength" : 268056,
            "byteOffset" : 545800
        },
        {
            "buffer" : 0,
            "byteLength" : 178704,
            "byteOffset" : 813856
        },
        {
            "buffer" : 0,
            "byteLength" : 144768,
            "byteOffset" : 992560
        }
    ],
    "buffers" : [
        {
            "byteLength" : 1137328,
            "uri" : "data:application/octet-stream;base64,"
        }
    ]
}
