{
    "asset" : {
        "generator" : "Khronos glTF Blender I/O v1.2.75",
        "version" : "2.0"
    },
    "scene" : 0,
    "scenes" : [
        {
            "extras" : {
                "glTF2ExportSettings" : {
                    "export_apply" : 1,
                    "export_extras" : 1,
                    "export_format" : "GLTF_EMBEDDED"
                }
            },
            "name" : "Scene",
            "nodes" : [
                0,
                1,
                2
            ]
        }
    ],
    "nodes" : [
        {
            "mesh" : 0,
            "name" : "Sphere",
            "rotation" : [
                0,
                -0.7071067690849304,
                0,
                0.7071067690849304
            ],
            "scale" : [
                1.5,
                1.5,
                1.5
            ],
            "translation" : [
                0.026979759335517883,
                -0.038636744022369385,
                -0.2729775011539459
            ]
        },
        {
            "mesh" : 1,
            "name" : "Sphere.001",
            "rotation" : [
                0,
                -0.7071067690849304,
                0,
                0.7071067690849304
            ],
            "scale" : [
                1.6319303512573242,
                1.6319303512573242,
                1.6319303512573242
            ],
            "translation" : [
                0.3489137291908264,
                0.14583319425582886,
                0.000781528651714325
            ]
        },
        {
            "mesh" : 2,
            "name" : "Sphere.002",
            "rotation" : [
                0,
                -0.7071067690849304,
                0,
                0.7071067690849304
            ],
            "scale" : [
                0.36553770303726196,
                0.247328519821167,
                3.3118510246276855
            ],
            "translation" : [
                0.026979736983776093,
                0.1246240958571434,
                0.0575733482837677
            ]
        }
    ],
    "materials" : [
        {
            "doubleSided" : true,
            "emissiveFactor" : [
                0,
                0,
                0
            ],
            "name" : "Material.003",
            "pbrMetallicRoughness" : {
                "baseColorFactor" : [
                    0.8000000715255737,
                    0.09654329717159271,
                    0.08677685260772705,
                    1
                ],
                "metallicFactor" : 0.05128205195069313,
                "roughnessFactor" : 1
            }
        },
        {
            "doubleSided" : true,
            "emissiveFactor" : [
                0,
                0,
                0
            ],
            "name" : "Material.001",
            "pbrMetallicRoughness" : {
                "baseColorFactor" : [
                    0,
                    0,
                    0,
                    1
                ],
                "metallicFactor" : 0,
                "roughnessFactor" : 0.5
            }
        },
        {
            "doubleSided" : true,
            "emissiveFactor" : [
                0,
                0,
                0
            ],
            "name" : "Material.002",
            "pbrMetallicRoughness" : {
                "baseColorFactor" : [
                    0,
                    0,
                    0,
                    1
                ],
                "metallicFactor" : 0,
                "roughnessFactor" : 0.5
            }
        }
    ],
    "meshes" : [
        {
            "name" : "Sphere",
            "primitives" : [
                {
                    "attributes" : {
                        "POSITION" : 0,
                        "NORMAL" : 1,
                        "TEXCOORD_0" : 2
                    },
                    "indices" : 3,
                    "material" : 0
                }
            ]
        },
        {
            "name" : "Sphere.001",
            "primitives" : [
                {
                    "attributes" : {
                        "POSITION" : 4,
                        "NORMAL" : 5,
                        "TEXCOORD_0" : 6
                    },
                    "indices" : 7,
                    "material" : 1
                }
            ]
        },
        {
            "name" : "Sphere.002",
            "primitives" : [
                {
                    "attributes" : {
                        "POSITION" : 8,
                        "NORMAL" : 9,
                        "TEXCOORD_0" : 10
                    },
                    "indices" : 11,
                    "material" : 2
                }
            ]
        }
    ],
    "accessors" : [
        {
            "bufferView" : 0,
            "componentType" : 5126,
            "count" : 559,
            "max" : [
                0.24202397465705872,
                0.41316914558410645,
                0.4936664402484894
            ],
            "min" : [
                -0.38404759764671326,
                -0.258760541677475,
                -0.4967321455478668
            ],
            "type" : "VEC3"
        },
        {
            "bufferView" : 1,
            "componentType" : 5126,
            "count" : 559,
            "type" : "VEC3"
        },
        {
            "bufferView" : 2,
            "componentType" : 5126,
            "count" : 559,
            "type" : "VEC2"
        },
        {
            "bufferView" : 3,
            "componentType" : 5123,
            "count" : 2880,
            "type" : "SCALAR"
        },
        {
            "bufferView" : 4,
            "componentType" : 5126,
            "count" : 1118,
            "max" : [
                0.06000000983476639,
                0.06000000610947609,
                0.4545437693595886
            ],
            "min" : [
                -0.0599999837577343,
                -0.05999999865889549,
                -0.05999999865889549
            ],
            "type" : "VEC3"
        },
        {
            "bufferView" : 5,
            "componentType" : 5126,
            "count" : 1118,
            "type" : "VEC3"
        },
        {
            "bufferView" : 6,
            "componentType" : 5126,
            "count" : 1118,
            "type" : "VEC2"
        },
        {
            "bufferView" : 7,
            "componentType" : 5123,
            "count" : 5760,
            "type" : "SCALAR"
        },
        {
            "bufferView" : 8,
            "componentType" : 5126,
            "count" : 515,
            "max" : [
                0.12000000476837158,
                0.11999998986721039,
                0.1024264320731163
            ],
            "min" : [
                -0.11999993771314621,
                -0.11999998986721039,
                -0.10242631286382675
            ],
            "type" : "VEC3"
        },
        {
            "bufferView" : 9,
            "componentType" : 5126,
            "count" : 515,
            "type" : "VEC3"
        },
        {
            "bufferView" : 10,
            "componentType" : 5126,
            "count" : 515,
            "type" : "VEC2"
        },
        {
            "bufferView" : 11,
            "componentType" : 5123,
            "count" : 2484,
            "type" : "SCALAR"
        }
    ],
    "bufferViews" : [
        {
            "buffer" : 0,
            "byteLength" : 6708,
            "byteOffset" : 0
        },
        {
            "buffer" : 0,
            "byteLength" : 6708,
            "byteOffset" : 6708
        },
        {
            "buffer" : 0,
            "byteLength" : 4472,
            "byteOffset" : 13416
        },
        {
            "buffer" : 0,
            "byteLength" : 5760,
            "byteOffset" : 17888
        },
        {
            "buffer" : 0,
            "byteLength" : 13416,
            "byteOffset" : 23648
        },
        {
            "buffer" : 0,
            "byteLength" : 13416,
            "byteOffset" : 37064
        },
        {
            "buffer" : 0,
            "byteLength" : 8944,
            "byteOffset" : 50480
        },
        {
            "buffer" : 0,
            "byteLength" : 11520,
            "byteOffset" : 59424
        },
        {
            "buffer" : 0,
            "byteLength" : 6180,
            "byteOffset" : 70944
        },
        {
            "buffer" : 0,
            "byteLength" : 6180,
            "byteOffset" : 77124
        },
        {
            "buffer" : 0,
            "byteLength" : 4120,
            "byteOffset" : 83304
        },
        {
            "buffer" : 0,
            "byteLength" : 4968,
            "byteOffset" : 87424
        }
    ],
    "buffers" : [
        {
            "byteLength" : 92392,
            "uri" : "data:application/octet-stream;base64,"
        }
    ]
}
